<svg width="13" height="26" viewBox="0 0 13 26" fill="none" xmlns="http://www.w3.org/2000/svg">
<path fill-rule="evenodd" clip-rule="evenodd" d="M12.0893 0.198848C12.0893 1.67539 12.0893 4.31993 12.0893 4.31993C12.0893 4.31993 9.05169 4.01723 8.291 5.18131C7.87513 5.81732 8.12197 7.68053 8.08512 9.01857C9.41114 9.01857 10.7884 9.01857 12.1144 9.01857C11.7736 10.5832 11.5297 11.643 11.2793 12.9972C10.1318 12.9972 8.06257 12.9972 8.06257 12.9972V25.8009C8.06257 25.8009 4.26577 25.8009 2.48083 25.8009C2.48197 21.8539 2.48004 17.2488 2.48083 13.0474C1.61372 13.0474 0.972621 13.0474 0.105729 13.0474C0.105729 11.5714 0.105729 10.4956 0.105729 9.01857C0.946985 9.01857 1.61291 9.01857 2.45463 9.01857C2.57501 6.07303 2.62045 3.15466 4.08359 1.66876C5.72822 -0.00187194 7.29663 0.198848 12.0893 0.198848Z" fill="white"/>
</svg>
