<svg width="26" height="26" viewBox="0 0 26 26" fill="none" xmlns="http://www.w3.org/2000/svg">
<path fill-rule="evenodd" clip-rule="evenodd" d="M22.6999 25.7997H3.49991C1.73272 25.7997 0.29991 24.3668 0.29991 22.5995V3.39966C0.29991 1.63236 1.73272 0.199446 3.49991 0.199446H22.6999C24.4673 0.199446 25.9 1.63236 25.9 3.39966V22.5995C25.9 24.3668 24.4673 25.7997 22.6999 25.7997ZM13.1 8.03925C11.1044 8.03925 9.38881 9.22067 8.60168 10.9194H8.59721C8.58897 10.9374 8.58338 10.9564 8.57537 10.9742C8.52821 11.0792 8.48656 11.187 8.44672 11.2955C8.42761 11.348 8.40713 11.3986 8.38973 11.451C8.35323 11.5625 8.32325 11.6764 8.29452 11.7909C8.28103 11.8445 8.26501 11.8969 8.25321 11.9511C8.22723 12.0721 8.20903 12.1949 8.19198 12.3189C8.18511 12.3691 8.17458 12.4178 8.1692 12.4686C8.15056 12.6432 8.13992 12.8202 8.13992 12.9996C8.13992 15.739 10.3606 17.9593 13.1 17.9593C15.8393 17.9593 18.06 15.739 18.06 12.9996C18.06 12.8202 18.0494 12.6432 18.0307 12.4686C18.0253 12.4178 18.0148 12.3691 18.0079 12.3189C17.9909 12.1949 17.9727 12.0721 17.9467 11.9511C17.9349 11.8969 17.9189 11.8445 17.9054 11.7909C17.8767 11.6764 17.8467 11.5625 17.8102 11.451C17.7928 11.3986 17.7723 11.348 17.7532 11.2955C17.7134 11.187 17.6717 11.0792 17.6245 10.9742C17.6165 10.9564 17.6109 10.9374 17.6027 10.9194H17.5982C16.8111 9.22067 15.0955 8.03925 13.1 8.03925ZM23.02 4.35934C23.02 3.65248 22.4469 3.0796 21.74 3.0796H19.1799C18.473 3.0796 17.9 3.65248 17.9 4.35934V6.9199C17.9 7.62692 18.473 8.19965 19.1799 8.19965H21.74C22.4469 8.19965 23.02 7.62692 23.02 6.9199V4.35934ZM23.02 10.9194H20.6603C20.8424 11.5821 20.94 12.2796 20.94 12.9996C20.94 17.3299 17.4299 20.8394 13.1 20.8394C8.77003 20.8394 5.26001 17.3299 5.26001 12.9996C5.26001 12.2796 5.35764 11.5821 5.53959 10.9194H3.17993V21.6393C3.17993 22.3468 3.75305 22.9197 4.45996 22.9197H21.74C22.4469 22.9197 23.02 22.3468 23.02 21.6393V10.9194Z" fill="#F38181"/>
</svg>
