<svg width="21" height="26" viewBox="0 0 21 26" fill="none" xmlns="http://www.w3.org/2000/svg">
<path fill-rule="evenodd" clip-rule="evenodd" d="M9.05075 16.8537C8.84157 17.687 8.63121 18.5601 8.41287 19.4142C8.1976 20.2558 8.00843 21.1101 7.69532 21.8837C7.17622 23.1653 6.5168 24.4032 5.65175 25.4051C5.07715 26.0721 5.19937 25.8057 5.02622 25.7699C4.89426 25.7424 4.88258 25.6131 4.85673 25.4254C4.71597 24.4068 4.81188 23.2302 4.8644 22.0858C4.92391 20.7822 5.19798 19.698 5.4525 18.6149C5.93706 16.5514 6.39893 14.5278 6.88771 12.4512C6.92044 12.313 7.00787 12.0846 6.97767 12.006C6.7561 11.429 6.61225 10.9111 6.54908 10.3054C6.47619 9.60989 6.53213 8.96132 6.68848 8.3623C6.9645 7.30444 7.60124 6.3668 8.58234 6.0241C9.20606 5.80765 9.89728 5.90554 10.3168 6.15641C10.7492 6.41451 11.0456 6.82279 11.1841 7.40155C11.3316 8.01718 11.2228 8.75274 11.1042 9.29347C10.8371 10.5117 10.4863 11.4266 10.1672 12.6027C10.0091 13.1862 9.8302 13.7852 9.97783 14.4146C10.1137 14.9927 10.4147 15.391 10.8253 15.6896C11.2507 15.9996 11.7545 16.1693 12.4499 16.145C13.6776 16.1021 14.531 15.317 15.1015 14.5768C16.0136 13.3923 16.5663 11.7931 16.776 9.89066C16.8435 9.27729 16.8931 8.57225 16.8457 7.87657C16.7585 6.59274 16.3567 5.56041 15.7193 4.7599C15.1129 3.99745 14.253 3.39074 13.2075 3.04925C12.1704 2.7106 10.7348 2.59795 9.45953 2.81619C7.14246 3.21311 5.5079 4.53032 4.54532 6.34897C4.04099 7.30083 3.70808 8.39628 3.70808 9.75897C3.70808 10.8097 3.9674 11.624 4.38604 12.2588C4.51867 12.4601 4.71414 12.626 4.84449 12.856C5.02908 13.1819 4.81599 13.6672 4.72466 14.0201C4.61492 14.4451 4.60324 15.0322 4.1068 15.0423C3.90148 15.0459 3.64321 14.8956 3.46878 14.7991C2.16428 14.0779 1.37155 12.766 1.04664 11.0648C0.84924 10.0313 0.849576 8.82554 1.04664 7.82657C1.23707 6.86039 1.59151 5.96866 1.98368 5.24563C2.79794 3.74296 3.99063 2.54145 5.44255 1.68311C6.5587 1.02261 7.81801 0.560144 9.34979 0.337194C9.85826 0.26273 10.3842 0.232232 10.9548 0.205504C12.6227 0.126802 14.1394 0.504712 15.2809 1.01491C16.4861 1.55366 17.4475 2.27139 18.2611 3.16072C19.0986 4.07555 19.7086 5.14023 20.0954 6.46994C20.2966 7.16186 20.4929 7.90226 20.4929 8.75698C20.4929 9.61472 20.3116 10.3699 20.1851 11.1251C19.711 13.9533 18.366 16.266 16.3474 17.5826C15.8578 17.9014 15.2656 18.1959 14.593 18.392C13.9259 18.5864 13.1651 18.7318 12.3502 18.6752C11.5586 18.621 10.9115 18.4057 10.3667 18.0982C9.82655 17.793 9.37257 17.4193 9.05075 16.8537Z" fill="#F38181"/>
</svg>
