<svg width="26" height="22" viewBox="0 0 26 22" fill="none" xmlns="http://www.w3.org/2000/svg">
<path fill-rule="evenodd" clip-rule="evenodd" d="M17.5126 0.600952C19.547 0.564564 20.6298 1.30616 21.664 2.24849C22.5418 2.17342 23.6827 1.68285 24.3547 1.34134C24.5725 1.22263 24.7903 1.10286 25.008 0.984302C24.6243 2.02132 24.1038 2.83316 23.304 3.44953C23.1264 3.58593 22.95 3.77139 22.7275 3.8584C22.7275 3.86203 22.7275 3.8667 22.7275 3.87094C23.8672 3.85961 24.8072 3.34517 25.7 3.06621C25.7 3.07043 25.7 3.07452 25.7 3.07934C25.2311 3.82441 24.5963 4.58082 23.919 5.12318C23.6457 5.34008 23.3723 5.55713 23.0991 5.77401C23.1139 6.98111 23.0812 8.13263 22.8555 9.14716C21.5439 15.042 18.0684 19.0444 12.5668 20.7587C10.5913 21.3745 7.39877 21.6271 5.13536 21.0651C4.01292 20.7868 2.9991 20.472 2.04753 20.0565C1.51902 19.8253 1.02944 19.575 0.561262 19.2894C0.407472 19.1959 0.25376 19.1022 0.09997 19.0087C0.61048 19.0241 1.20775 19.1649 1.77848 19.0725C2.29481 18.9889 2.80121 19.011 3.27753 18.9068C4.46566 18.6456 5.52058 18.3011 6.42946 17.7695C6.87006 17.5115 7.53862 17.2093 7.85174 16.8373C7.26167 16.8474 6.7269 16.7104 6.28859 16.556C4.5896 15.9564 3.60071 14.8531 2.95721 13.196C3.47207 13.2527 4.95511 13.3868 5.302 13.0941C4.65379 13.0583 4.03055 12.6828 3.58514 12.4044C2.21837 11.5491 1.10383 10.1152 1.1122 7.90788C1.29152 7.99322 1.47095 8.0784 1.6503 8.16299C1.9936 8.30784 2.34265 8.38532 2.75226 8.47004C2.92529 8.50568 3.27111 8.60704 3.46978 8.53318C3.4612 8.53318 3.45262 8.53318 3.44414 8.53318C3.17967 8.22628 2.74893 8.02056 2.48318 7.69039C1.60636 6.60079 0.78455 4.92351 1.30445 2.92558C1.43629 2.41886 1.64536 1.97193 1.86818 1.55885C1.87665 1.56308 1.88523 1.56715 1.89381 1.57137C1.99579 1.78541 2.22352 1.94203 2.36785 2.12087C2.81564 2.67577 3.36804 3.17526 3.93099 3.61524C5.84891 5.11548 7.57617 6.03698 10.3502 6.71937C11.0539 6.89291 11.8672 7.02522 12.7078 7.02643C12.4717 6.3386 12.5476 5.22636 12.7334 4.56058C13.2009 2.88737 14.2163 1.68164 15.706 1.0355C16.0622 0.880528 16.4572 0.767866 16.872 0.677226C17.0855 0.651706 17.299 0.626032 17.5126 0.600952Z" fill="#F38181"/>
</svg>
