<svg width="32" height="28" viewBox="0 0 32 28" fill="none" xmlns="http://www.w3.org/2000/svg">
<path fill-rule="evenodd" clip-rule="evenodd" d="M30 22.9996H22.5H20.5V25.4994L22.5 27.4998V27.9999H9.5V27.4998L11.5 25.4994V22.9996H9.5H2C1.17158 22.9996 0.500032 22.3279 0.500032 21.4993V1.49962C0.500032 0.67116 1.17158 -5.6e-05 2 -5.6e-05H30C30.8285 -5.6e-05 31.5 0.67116 31.5 1.49962V21.4993C31.5 22.3279 30.8285 22.9996 30 22.9996ZM29.5 1.9997H2.5V18.9995H29.5V1.9997ZM13 8.9997C13.4142 8.9997 13.7892 9.16782 14.0606 9.43894L14.9999 10.3784L17.9393 7.43918C18.2108 7.16747 18.5857 6.99997 19 6.99997C19.8284 6.99997 20.5 7.67105 20.5 8.49962C20.5 8.91394 20.3321 9.2888 20.0606 9.56052L16.0607 13.5606C15.7892 13.8319 15.4142 14 14.9999 14C14.5858 14 14.2108 13.8319 13.9393 13.5606L11.9393 11.5603C11.6679 11.2892 11.5 10.9135 11.5 10.5C11.5 9.6714 12.1716 8.9997 13 8.9997Z" fill="#95E1D3"/>
</svg>
