<svg width="32" height="31" viewBox="0 0 32 31" fill="none" xmlns="http://www.w3.org/2000/svg">
<path fill-rule="evenodd" clip-rule="evenodd" d="M31.9999 16.4998C31.9999 17.3284 31.3284 17.9994 30.5 17.9994C30.1048 17.9994 29.7481 17.8438 29.4802 17.5942L29.4765 17.5976L16.0382 4.15918L16.0383 4.15859L15.9999 4.12232V4.12173L2.55382 17.5685L2.55315 17.5679C2.28227 17.8349 1.91043 17.9994 1.50006 17.9994C0.671488 17.9994 -3.2e-05 17.3284 -3.2e-05 16.4998C-3.2e-05 16.0747 0.176992 15.6915 0.4608 15.4186L14.9188 0.960194C15.1918 0.676544 15.575 0.499534 15.9999 0.499534C16.0002 0.499534 16.0003 0.499534 16.0005 0.499534C16.0271 0.499534 16.0534 0.500123 16.0796 0.501952C16.0837 0.501952 16.0879 0.502541 16.0921 0.502541C16.1147 0.504215 16.1372 0.506013 16.1596 0.508431C16.161 0.508431 16.1625 0.508431 16.1639 0.509051C16.5311 0.548917 16.8581 0.721246 17.097 0.976965L17.0978 0.976345L23 6.87831V5.4998C23 4.6712 23.6715 3.99953 24.4999 3.99953C25.3284 3.99953 25.9999 4.6712 25.9999 5.4998V9.87824L31.5978 15.4763L31.5944 15.4799C31.8441 15.7476 31.9999 16.1046 31.9999 16.4998ZM29 18.9996V23.4998V25.4995V29.4996C29 30.328 28.3284 30.9999 27.5 30.9999H24.4999V18.9996H18.5V30.9999H4.5C3.67158 30.9999 3.00003 30.328 3.00003 29.4996V25.4995V23.4998V18.9996L15.9999 5.9999L29 18.9996ZM13.5 18.9996H7.49997V25H13.5V18.9996Z" fill="#95E1D3"/>
</svg>
