<svg width="32" height="32" viewBox="0 0 32 32" fill="none" xmlns="http://www.w3.org/2000/svg">
<path fill-rule="evenodd" clip-rule="evenodd" d="M30.5 31.9999H1.5C0.671456 31.9999 -6.4e-05 31.3282 -6.4e-05 30.4998V1.49971C-6.4e-05 0.671104 0.671456 3.2e-05 1.5 3.2e-05H30.5C31.3285 3.2e-05 32 0.671104 32 1.49971V30.4998C32 31.3282 31.3285 31.9999 30.5 31.9999ZM29.0001 2.99997H3V28.9995H29.0001V2.99997ZM6.50006 4.49962H11.9998H12C12.8284 4.49962 13.4999 5.1713 13.4999 5.99987C13.4999 6.82832 12.8284 7.49955 12 7.49955H7.50003V11.9996C7.50003 12.8282 6.82838 13.4998 5.99994 13.4998C5.17162 13.4998 4.49997 12.8282 4.49997 11.9996V6.49997V4.49962H6.50006ZM4.49997 19.9997C4.49997 19.1713 5.17162 18.4995 5.99994 18.4995C6.82838 18.4995 7.50003 19.1713 7.50003 19.9997V24.4993H12V24.4999C12.8284 24.4999 13.4999 25.171 13.4999 25.9996C13.4999 26.828 12.8284 27.4999 12 27.4999H11.9998H6.50006H4.49997V25.4995V19.9997ZM20 4.49962H20.0001H25.5H27.5V6.49997V11.9996C27.5 12.8282 26.8283 13.4998 26 13.4998C25.1716 13.4998 24.4999 12.8282 24.4999 11.9996V7.49955H20C19.1715 7.49955 18.5 6.82832 18.5 5.99987C18.5 5.1713 19.1715 4.49962 20 4.49962ZM20 24.4999V24.4993H24.4999V19.9997C24.4999 19.1713 25.1716 18.4995 26 18.4995C26.8283 18.4995 27.5 19.1713 27.5 19.9997V25.4995V27.4999H25.5H20.0001H20C19.1715 27.4999 18.5 26.828 18.5 25.9996C18.5 25.171 19.1715 24.4999 20 24.4999Z" fill="#95E1D3"/>
</svg>
