<svg width="32" height="31" viewBox="0 0 32 31" fill="none" xmlns="http://www.w3.org/2000/svg">
<path fill-rule="evenodd" clip-rule="evenodd" d="M30.7396 9.50283C29.1564 5.80661 26.1931 2.8431 22.4974 1.26006C23.4968 0.473308 24.7547 -3.1e-05 26.1256 -3.1e-05C29.3699 -3.1e-05 32 2.62967 32 5.87397C32 7.24495 31.5267 8.50265 30.7396 9.50283ZM30.5 15.9997C30.5 19.852 28.9878 23.3429 26.5375 25.9399L28.5656 27.9677C28.834 28.2365 29 28.6072 29 29.0167C29 29.8357 28.3359 30.4997 27.5169 30.4997C27.1073 30.4997 26.7365 30.334 26.4681 30.0652L24.2896 27.8866C21.9391 29.5293 19.0849 30.4997 16 30.4997C12.9212 30.4997 10.0718 29.5335 7.72397 27.8967L5.56067 30.0603C5.28912 30.3316 4.91421 30.4997 4.49994 30.4997C3.67162 30.4997 2.99997 29.8279 2.99997 28.9994C2.99997 28.5858 3.16784 28.2102 3.4393 27.939L5.45117 25.9275C3.00774 23.3316 1.49997 19.8453 1.49997 15.9997C1.49997 7.99183 7.99187 1.49962 16 1.49962C24.0081 1.49962 30.5 7.99183 30.5 15.9997ZM16 4.49953C9.64864 4.49953 4.49994 9.64813 4.49994 15.9997C4.49994 22.3512 9.64864 27.4998 16 27.4998C22.3512 27.4998 27.4999 22.3512 27.4999 15.9997C27.4999 9.64813 22.3512 4.49953 16 4.49953ZM22 17.4998H16C15.1716 17.4998 14.5 16.8282 14.5 15.9997V7.99955C14.5 7.17154 15.1716 6.49989 16 6.49989C16.8284 6.49989 17.5 7.17154 17.5 7.99955V14.4995H22C22.8284 14.4995 23.5 15.1712 23.5 15.9997C23.5 16.8282 22.8284 17.4998 22 17.4998ZM1.28723 9.70536C0.483392 8.68496 0 7.39992 0 5.9998C0 2.68572 2.68627 -3.1e-05 5.9999 -3.1e-05C7.4001 -3.1e-05 8.68502 0.483445 9.70586 1.28681C5.93091 2.90396 2.90429 5.93061 1.28723 9.70536Z" fill="#95E1D3"/>
</svg>
