<svg width="32" height="32" viewBox="0 0 32 32" fill="none" xmlns="http://www.w3.org/2000/svg">
<path fill-rule="evenodd" clip-rule="evenodd" d="M31.0645 25.8893L16.5937 31.8772C16.4116 31.9558 16.2109 31.9999 16 31.9999C15.7891 31.9999 15.5883 31.9558 15.4062 31.8772L0.935296 25.8893C0.386784 25.6664 0 25.1281 0 24.4999V1.49971C0 0.671104 0.67152 3.2e-05 1.49997 3.2e-05C1.7032 3.2e-05 1.89674 0.040512 2.07344 0.11392H2.07354L2.07594 0.114976C2.08042 0.116192 2.08486 0.118592 2.08934 0.120416L16 5.87648L29.9106 0.120416C29.9149 0.118592 29.9195 0.116192 29.924 0.114976L29.9265 0.11392C30.1032 0.040512 30.2967 3.2e-05 30.5 3.2e-05C31.3284 3.2e-05 32 0.671104 32 1.49971V24.4999C32 25.1281 31.6132 25.6664 31.0645 25.8893ZM14.5 8.50259L2.99994 3.74381V23.4967L14.5 28.2556V8.50259ZM29 3.74381L17.4999 8.50259V28.2556L29 23.4967V3.74381ZM19.8793 10.634L25.3793 8.13421C25.5685 8.04781 25.7785 7.99962 25.9999 7.99962C26.8284 7.99962 27.5 8.6713 27.5 9.49974C27.5 10.1066 27.1393 10.6293 26.6207 10.8653L21.1206 13.3651C20.9315 13.4516 20.7215 13.4998 20.5 13.4998C19.6716 13.4998 18.9999 12.8282 18.9999 11.9996C18.9999 11.3929 19.3606 10.8701 19.8793 10.634ZM19.8793 16.1344L25.3793 13.634C25.5685 13.5482 25.7785 13.4998 25.9999 13.4998C26.8284 13.4998 27.5 14.171 27.5 14.9995C27.5 15.607 27.1393 16.1291 26.6207 16.365L21.1206 18.8655V18.8649C20.9315 18.9513 20.7215 18.9996 20.5 18.9996C19.6716 18.9996 18.9999 18.3279 18.9999 17.4999C18.9999 16.8926 19.3606 16.3705 19.8793 16.1344ZM19.8793 21.6341L25.3793 19.1343C25.5685 19.0479 25.7785 18.9996 25.9999 18.9996C26.8284 18.9996 27.5 19.6714 27.5 20.4998C27.5 21.1066 27.1393 21.6293 26.6207 21.8654L21.1206 24.3652C20.9315 24.4516 20.7215 24.4999 20.5 24.4999C19.6716 24.4999 18.9999 23.8281 18.9999 22.9997C18.9999 22.393 19.3606 21.8702 19.8793 21.6341ZM6 7.99962C6.22144 7.99962 6.43146 8.04781 6.62061 8.13421L12.1206 10.634C12.6393 10.8701 13 11.3929 13 11.9996C13 12.8282 12.3284 13.4998 11.4999 13.4998C11.2785 13.4998 11.0685 13.4516 10.8793 13.3651L5.3793 10.8653C4.86064 10.6293 4.4999 10.1066 4.4999 9.49974C4.4999 8.6713 5.17158 7.99962 6 7.99962ZM6 13.4998C6.22144 13.4998 6.43146 13.5482 6.62061 13.634L12.1206 16.1344C12.6393 16.3705 13 16.8926 13 17.4999C13 18.3279 12.3284 18.9996 11.4999 18.9996C11.2785 18.9996 11.0685 18.9513 10.8793 18.8649V18.8655L5.3793 16.365C4.86064 16.1291 4.4999 15.607 4.4999 14.9995C4.4999 14.171 5.17158 13.4998 6 13.4998ZM6 18.9996C6.22144 18.9996 6.43146 19.0479 6.62061 19.1343L12.1206 21.6341C12.6393 21.8702 13 22.393 13 22.9997C13 23.8281 12.3284 24.4999 11.4999 24.4999C11.2785 24.4999 11.0685 24.4516 10.8793 24.3652L5.3793 21.8654C4.86064 21.6293 4.4999 21.1066 4.4999 20.4998C4.4999 19.6714 5.17158 18.9996 6 18.9996Z" fill="#95E1D3"/>
</svg>
