<svg width="32" height="32" viewBox="0 0 32 32" fill="none" xmlns="http://www.w3.org/2000/svg">
<path fill-rule="evenodd" clip-rule="evenodd" d="M30.4999 31.9998H1.49994C0.671616 31.9998 6.4e-05 31.328 6.4e-05 30.4995V1.49946C6.4e-05 0.671616 0.671616 -0.000224 1.49994 -0.000224H30.4999C31.3284 -0.000224 32 0.671616 32 1.49946V30.4995C32 31.328 31.3284 31.9998 30.4999 31.9998ZM29 2.99971H3V28.9999H29V2.99971ZM5.21536 16.2385L5.21469 16.2373L9.21462 13.7375L9.21542 13.7387C9.44371 13.598 9.71232 13.5169 9.9999 13.5169C10.3113 13.5169 10.6004 13.6118 10.8401 13.7745L10.846 13.7656L17.4767 18.1858L25.1149 12.7945C25.363 12.6128 25.6689 12.5054 26 12.5054C26.8283 12.5054 27.5 13.1766 27.5 14.0051C27.5 14.5052 27.255 14.948 26.8785 15.2205L26.8789 15.2211L18.3789 21.2214L18.3785 21.2208C18.1315 21.3996 17.8281 21.5052 17.5 21.5052C17.1794 21.5052 16.8824 21.4044 16.6386 21.2327L9.9824 16.7952L6.84685 18.7549C6.60582 18.9202 6.31424 19.0173 5.99997 19.0173C5.17152 19.0173 4.5 18.3455 4.5 17.517C4.5 16.9765 4.78634 16.5025 5.21536 16.2385Z" fill="#95E1D3"/>
</svg>
